<svg xmlns="http://www.w3.org/2000/svg" viewBox="0 0 1200 630" role="img" aria-labelledby="title desc">
  <title id="title">StickerFit Studio sticker sheet calculator</title>
  <desc id="desc">Social preview image for StickerFit Studio.</desc>
  <rect width="1200" height="630" fill="#f7f8f5"/>
  <path d="M0 0h1200v630H0z" fill="#f7f8f5"/>
  <g opacity=".35" stroke="#d9e2df" stroke-width="2">
    <path d="M0 90h1200M0 180h1200M0 270h1200M0 360h1200M0 450h1200M0 540h1200"/>
    <path d="M100 0v630M220 0v630M340 0v630M460 0v630M580 0v630M700 0v630M820 0v630M940 0v630M1060 0v630"/>
  </g>
  <rect x="700" y="80" width="300" height="470" rx="24" fill="#fff" stroke="#17211f" stroke-width="6"/>
  <rect x="735" y="120" width="230" height="388" rx="18" fill="#eef4f2" stroke="#2bb3a3" stroke-width="4" stroke-dasharray="18 14"/>
  <circle cx="795" cy="190" r="42" fill="#2bb3a3"/>
  <circle cx="895" cy="190" r="42" fill="#f2b84b"/>
  <circle cx="795" cy="300" r="42" fill="#e56b5d"/>
  <circle cx="895" cy="300" r="42" fill="#5f8dd3"/>
  <rect x="765" y="395" width="170" height="52" rx="26" fill="#90be6d"/>
  <text x="110" y="205" fill="#17211f" font-family="Inter, Arial, sans-serif" font-size="68" font-weight="800">Sticker Sheet</text>
  <text x="110" y="290" fill="#17211f" font-family="Inter, Arial, sans-serif" font-size="68" font-weight="800">Calculator</text>
  <text x="112" y="365" fill="#66706d" font-family="Inter, Arial, sans-serif" font-size="34" font-weight="700">Plan layouts, reduce waste, price sheets.</text>
  <text x="112" y="445" fill="#2bb3a3" font-family="Inter, Arial, sans-serif" font-size="30" font-weight="800">StickerFit Studio</text>
</svg>
